<svg xmlns="http://www.w3.org/2000/svg" xmlns:xlink="http://www.w3.org/1999/xlink" width="183.734" height="24" viewBox="0 0 183.734 24">
  <defs>
    <clipPath id="clip-path">
      <rect id="Rectangle_2598" data-name="Rectangle 2598" width="183.734" height="24" fill="#fff"/>
    </clipPath>
  </defs>
  <g id="Group_6814" data-name="Group 6814" transform="translate(0 0)">
    <g id="Group_6814-2" data-name="Group 6814" transform="translate(0 0)" clip-path="url(#clip-path)">
      <path id="Path_7584" data-name="Path 7584" d="M487.669,5.4a1.337,1.337,0,0,1-1.337-1.416A1.336,1.336,0,1,1,489,4.038,1.313,1.313,0,0,1,487.669,5.4m.011-3.126A1.757,1.757,0,1,0,489.466,4a1.756,1.756,0,0,0-1.786-1.728" transform="translate(-305.732 -1.429)" fill="#fff"/>
      <path id="Path_7585" data-name="Path 7585" d="M489.743,5.344a.912.912,0,0,1-.413.036V4.908a.669.669,0,0,1,.4,0,.219.219,0,0,1,.165.22.212.212,0,0,1-.153.214m.258.165.063-.033a.417.417,0,0,0,.286-.419A.431.431,0,0,0,490,4.631a2.879,2.879,0,0,0-1.094,0V6.38a2.218,2.218,0,0,0,.406-.006V5.686h.15c.233,0,.361.073.4.31a.957.957,0,0,0,.124.377h.443c-.136-.3-.066-.68-.425-.865" transform="translate(-307.638 -2.879)" fill="#fff"/>
      <path id="Path_7586" data-name="Path 7586" d="M164.3,23.538h4.681V14.6c0-3.461,1.089-4.879,3.627-4.879,2.209,0,3,1.385,3,4.187v9.626h4.682V13.055c0-4.22-1.253-7.022-6.231-7.022a6,6,0,0,0-5.209,2.835h-.1V6.494H164.3Zm-20.67-8.506c0,5.406,3.462,8.968,8.8,8.968,5.374,0,8.836-3.561,8.836-8.968,0-5.439-3.462-9-8.836-9-5.34,0-8.8,3.56-8.8,9m4.681,0c0-2.736.956-5.472,4.121-5.472,3.2,0,4.154,2.737,4.154,5.472s-.955,5.439-4.154,5.439c-3.165,0-4.121-2.7-4.121-5.439m-12.526,8.506h4.681V0h-4.681Zm-19.681,0h4.681V14.6c0-3.461,1.087-4.879,3.626-4.879,2.209,0,3,1.385,3,4.187v9.626H132.1V13.055c0-4.22-1.254-7.022-6.231-7.022a5.91,5.91,0,0,0-4.979,2.835h-.1V0h-4.681Zm-5.67-22.154h-4.681v5.11h-2.835V9.626h2.835V19.68c0,3.429,2.473,4.056,5.373,4.056a18,18,0,0,0,2.737-.165V19.912a6.561,6.561,0,0,1-1.45.132c-1.583,0-1.978-.4-1.978-1.978V9.626h3.429V6.494h-3.429ZM96.2,16.945c0,1.054-.132,3.923-3.791,3.923-1.516,0-2.868-.461-2.868-2.175s1.319-2.242,2.769-2.506,3.1-.3,3.891-.99Zm-6.132-5.208c.165-1.847,1.287-2.572,3.1-2.572,1.648,0,3.033.329,3.033,2.308.2,3.825-11.274-.329-11.341,7.418,0,3.494,2.538,5.11,5.8,5.11a7.767,7.767,0,0,0,5.737-2.11,6.972,6.972,0,0,0,.329,1.648h4.748a8.725,8.725,0,0,1-.594-3.791V10.879c0-4.088-4.088-4.846-7.483-4.846-3.824,0-7.747,1.352-8.011,5.7Zm-22.977,11.8h4.682V17.67l1.813-1.747,4.681,7.616h5.67l-7.154-10.78,6.429-6.264H77.669l-5.9,6.132V0H67.086ZM48.131,18c.166,4.516,4.055,6,8.011,6,3.857,0,7.78-1.451,7.78-5.934,0-3.165-2.671-4.154-5.407-4.781-2.638-.626-5.308-.857-5.308-2.538,0-1.418,1.549-1.583,2.6-1.583,1.681,0,3.065.495,3.2,2.308h4.45c-.363-4.187-3.824-5.439-7.516-5.439-3.66,0-7.418,1.121-7.418,5.472,0,3.033,2.671,3.923,5.407,4.55,3.329.692,5.307,1.219,5.307,2.637,0,1.648-1.746,2.175-3.065,2.175-1.814,0-3.593-.856-3.593-2.868ZM45.4,6.494H40.714v8.934c0,3.462-1.087,4.879-3.626,4.879-2.209,0-3-1.385-3-4.187V6.494H29.406V16.978C29.406,21.2,30.659,24,35.637,24a6.005,6.005,0,0,0,5.208-2.835h.1v2.373H45.4ZM0,23.538H4.846V7.022h.066l5.769,16.516H14.67L20.44,6.856h.065V23.538h4.847V0H18.066L12.857,16.187h-.066L7.285,0H0Z" transform="translate(0 0)" fill="#fff"/>
    </g>
  </g>
</svg>
